HIERARCHY
ROOT pelvis
{
	OFFSET 0.00 0.00 0.00
	CHANNELS 6 Xposition Yposition Zposition Xrotation Yrotation Zrotation
	JOINT lfemur
	{
		OFFSET 0.00000 3.26371 0.00000
		CHANNELS 3 Xrotation Yrotation Zrotation
		JOINT ltibia
		{
			OFFSET 0.00000 0.00000 -17.39272
			CHANNELS 3 Xrotation Yrotation Zrotation
			JOINT lfoot
			{
				OFFSET 0.00000 0.00000 -17.72520
				CHANNELS 3 Xrotation Yrotation Zrotation
				JOINT ltoes
				{
					OFFSET 4.21806 0.00000 0.00000
					CHANNELS 3 Xrotation Yrotation Zrotation
				}
			}
		}
	}
	JOINT rfemur
	{
		OFFSET 0.00000 -3.26371 0.00000
		CHANNELS 3 Xrotation Yrotation Zrotation
		JOINT rtibia
		{
			OFFSET 0.00000 0.00000 -17.39272
			CHANNELS 3 Xrotation Yrotation Zrotation
			JOINT rfoot
			{
				OFFSET 0.00000 0.00000 -17.72520
				CHANNELS 3 Xrotation Yrotation Zrotation
				JOINT rtoes
				{
					OFFSET 4.21806 0.00000 0.00000
					CHANNELS 3 Xrotation Yrotation Zrotation
				}
			}
		}
	}
	JOINT thorax
	{
		OFFSET -1.96850 0.00000 6.16593
		CHANNELS 6 Xposition Yposition Zposition Xrotation Yrotation Zrotation
		JOINT head
		{
			OFFSET 0.00000 0.00000 18.21355
			CHANNELS 6 Xposition Yposition Zposition Xrotation Yrotation Zrotation
		}
		JOINT lclavicle
		{
			OFFSET 0.00000 0.00000 15.13875
			CHANNELS 3 Xrotation Yrotation Zrotation
			JOINT lhumerus
			{
				OFFSET 0.00000 7.18963 -1.52650
				CHANNELS 3 Xrotation Yrotation Zrotation
				JOINT lradius
				{
					OFFSET 0.00000 0.00000 -10.12096
					CHANNELS 3 Xrotation Yrotation Zrotation
					JOINT lhand
					{
						OFFSET 0.00000 0.00000 -10.45726
						CHANNELS 3 Xrotation Yrotation Zrotation
					}
				}
			}
		}
		JOINT rclavicle
		{
			OFFSET 0.00000 0.00000 15.13875
			CHANNELS 3 Xrotation Yrotation Zrotation
			JOINT rhumerus
			{
				OFFSET 0.00000 -7.18963 -1.52650
				CHANNELS 3 Xrotation Yrotation Zrotation
				JOINT rradius
				{
					OFFSET 0.00000 0.00000 -10.12096
					CHANNELS 3 Xrotation Yrotation Zrotation
					JOINT rhand
					{
						OFFSET 0.00000 0.00000 -10.45726
						CHANNELS 3 Xrotation Yrotation Zrotation
					}
				}
			}
		}
	}
}
MOTION
Frames: 11
Frame Time: 0.008333
 -49.6335 -14.0614 37.2851 0.7306 -3.8013 0.6367 3.9060 8.9059 -3.9095 -0.0000 6.6256 0.0000 0.0000 9.1197 7.2556 0.0000 -24.5574 -0.0000 -8.0098 8.2203 -2.5122 -0.0000 10.6671 0.0000 0.0000 10.2047 -1.5213 0.0000 -28.7393 -0.0000 -52.7971 -14.0149 43.0466 0.1535 2.7927 1.1373 -53.3728 -14.6453 61.8559 0.6552 7.6655 2.1825 -18.1420 0.0000 -6.0404 30.1619 3.2805 -8.3601 0.0000 -26.7664 -42.9816 -5.7020 -0.1362 -0.0000 13.2932 -0.0000 -2.0897 -31.9677 2.6999 11.5097 -0.0000 -30.6743 27.5345 17.7525 -1.1004 0.0000
 -49.6362 -14.0624 37.2852 0.7531 -3.8166 0.5853 3.8685 8.9179 -3.9567 -0.0000 6.6445 0.0000 -0.0000 9.1233 7.3634 0.0000 -24.4479 -0.0000 -8.0350 8.1876 -2.3913 -0.0000 10.7360 0.0000 0.0000 10.1487 -1.5861 0.0000 -28.6887 -0.0000 -52.7816 -14.0202 43.0436 0.1420 2.7799 1.2029 -53.3693 -14.6610 61.8559 0.5649 7.7235 2.1037 -18.1215 0.0000 -5.8927 30.2067 3.1380 -8.7472 0.0000 -26.7198 -42.7155 -5.7871 -0.1303 0.0000 13.2460 -0.0000 -2.2394 -31.9858 2.6226 11.8681 -0.0000 -30.6924 27.2803 17.6869 -0.9938 -0.0000
 -49.6330 -14.0644 37.2845 0.7600 -3.8157 0.5846 3.8639 8.9210 -3.9479 -0.0000 6.6416 0.0000 0.0000 9.1721 7.3525 0.0000 -24.5614 -0.0000 -8.0346 8.1770 -2.3513 -0.0000 10.7643 0.0000 0.0000 10.1755 -1.6410 0.0000 -28.8034 -0.0000 -52.7754 -14.0230 43.0436 0.1475 2.7884 1.1838 -53.3634 -14.6658 61.8524 0.6067 7.7186 2.0703 -18.1175 0.0000 -5.8934 30.2142 3.1368 -8.7418 0.0000 -26.7231 -42.7164 -5.8086 -0.1574 0.0000 13.2492 -0.0000 -2.2513 -31.9977 2.6186 11.8204 -0.0000 -30.7228 27.3394 17.8431 -0.9276 0.0000
 -49.6327 -14.0679 37.2831 0.7672 -3.8200 0.5764 3.8572 8.9210 -3.9813 -0.0000 6.6557 0.0000 -0.0000 9.1642 7.4082 0.0000 -24.5690 -0.0000 -8.0338 8.1582 -2.2988 -0.0000 10.8101 0.0000 0.0000 10.1621 -1.6903 0.0000 -28.8302 -0.0000 -52.7732 -14.0265 43.0425 0.1525 2.8001 1.1653 -53.3593 -14.6715 61.8524 0.6290 7.7354 2.0452 -18.1099 0.0000 -5.9002 30.2223 3.1277 -8.7536 0.0000 -26.7301 -42.7044 -5.8222 -0.1256 -0.0000 13.2557 -0.0000 -2.2504 -32.0179 2.5979 11.8077 0.0000 -30.7199 27.3409 17.8046 -0.9887 0.0000
 -49.6372 -14.0731 37.2822 0.7811 -3.8382 0.5440 3.8444 8.9253 -3.9905 -0.0000 6.6814 0.0000 0.0000 9.1337 7.4423 0.0000 -24.5229 -0.0000 -8.0435 8.1040 -2.2675 -0.0000 10.9289 0.0000 0.0000 10.0630 -1.6963 0.0000 -28.7365 -0.0000 -52.7710 -14.0288 43.0425 0.1550 2.8318 1.1424 -53.3475 -14.6817 61.8463 0.6312 7.6776 2.1142 -18.1138 0.0000 -5.8918 30.2312 3.1375 -8.7315 0.0000 -26.7631 -42.7012 -5.8343 -0.0218 -0.0000 13.2547 -0.0000 -2.2887 -32.0520 2.4910 11.9301 -0.0000 -30.6531 27.2226 17.6939 -1.0135 0.0000
 -49.6357 -14.0752 37.2813 0.7869 -3.8404 0.5425 3.8414 8.9271 -3.9930 -0.0000 6.6878 0.0000 0.0000 9.1456 7.4419 0.0000 -24.5660 -0.0000 -8.0455 8.0935 -2.2355 -0.0000 10.9527 0.0000 0.0000 10.0817 -1.7155 0.0000 -28.8286 -0.0000 -52.7693 -14.0338 43.0420 0.1672 2.8356 1.1280 -53.3422 -14.6916 61.8456 0.6077 7.6856 2.0580 -18.1060 0.0000 -5.9083 30.2420 3.1254 -8.7513 0.0000 -26.7455 -42.6600 -5.8716 -0.0662 -0.0000 13.2537 -0.0000 -2.2947 -32.0606 2.4832 11.9140 -0.0000 -30.6646 27.2686 17.8223 -0.8840 0.0000
 -49.6407 -14.0798 37.2804 0.7979 -3.8546 0.5292 3.8313 8.9254 -4.0409 -0.0000 6.7090 0.0000 0.0000 9.1447 7.5024 0.0000 -24.5318 -0.0000 -8.0498 8.0413 -2.2143 -0.0000 11.0720 0.0000 0.0000 10.0333 -1.7373 0.0000 -28.7688 -0.0000 -52.7770 -14.0355 43.0415 0.1793 2.9036 1.1322 -53.3368 -14.7014 61.8426 0.6263 7.6511 2.0531 -18.0996 0.0000 -5.9600 30.2452 3.1065 -8.7702 0.0000 -26.7586 -42.5861 -5.8059 -0.0176 -0.0000 13.2568 -0.0000 -2.2889 -32.0919 2.4481 11.8833 -0.0000 -30.6891 27.1954 17.8538 -0.9027 0.0000
 -49.6383 -14.0817 37.2799 0.8026 -3.8544 0.5268 3.8291 8.9264 -4.0340 -0.0000 6.7123 0.0000 0.0000 9.1475 7.5103 0.0000 -24.5677 -0.0000 -8.0529 8.0330 -2.2007 -0.0000 11.0908 0.0000 0.0000 10.0373 -1.7484 0.0000 -28.8445 -0.0000 -52.7728 -14.0402 43.0417 0.1911 2.9154 1.1230 -53.3285 -14.7112 61.8383 0.5942 7.6373 1.9794 -18.0943 0.0000 -5.9679 30.2466 3.1016 -8.7632 0.0000 -26.7711 -42.5318 -5.9312 0.0791 -0.0000 13.2577 -0.0000 -2.2898 -32.0975 2.4505 11.8743 -0.0000 -30.6818 27.2326 17.7632 -0.9045 0.0000
 -49.6406 -14.0869 37.2785 0.8119 -3.8750 0.4999 3.8221 8.9303 -4.0516 -0.0000 6.7551 0.0000 -0.0000 9.1059 7.5430 0.0000 -24.5200 -0.0000 -8.0625 7.9753 -2.2256 -0.0000 11.2298 0.0000 0.0000 9.9423 -1.7061 0.0000 -28.7579 -0.0000 -52.7800 -14.0403 43.0409 0.2098 2.9772 1.1347 -53.3134 -14.7246 61.8308 0.5892 7.5119 1.9737 -18.0814 0.0000 -6.0160 30.2334 3.0843 -8.7682 0.0000 -26.7796 -42.4932 -5.9138 0.1079 -0.0000 13.2606 -0.0000 -2.2643 -32.1337 2.4167 11.8266 -0.0000 -30.6624 27.2087 17.7441 -0.9744 0.0000
 -49.6426 -14.0900 37.2777 0.8209 -3.8818 0.4974 3.8205 8.9336 -4.0236 -0.0000 6.7495 0.0000 -0.0000 9.1634 7.5349 0.0000 -24.6322 -0.0000 -8.0665 7.9505 -2.2054 -0.0000 11.2792 0.0000 0.0000 9.9739 -1.7292 0.0000 -28.8757 -0.0000 -52.7813 -14.0459 43.0409 0.2212 3.0007 1.1255 -53.3156 -14.7359 61.8336 0.5678 7.5766 1.9125 -18.0754 0.0000 -6.0493 30.2381 3.0662 -8.7772 0.0000 -26.7550 -42.4534 -5.8217 0.0740 0.0000 13.2627 -0.0000 -2.2441 -32.1427 2.4185 11.8019 -0.0000 -30.6633 27.1905 17.9646 -0.6825 0.0000
 -49.6404 -14.0942 37.2767 0.8253 -3.8888 0.4884 3.8138 8.9256 -4.0953 -0.0000 6.7889 0.0000 0.0000 9.1429 7.6132 0.0000 -24.6180 -0.0000 -8.0667 7.9363 -2.1926 -0.0000 11.3220 0.0000 0.0000 9.9231 -1.7279 0.0000 -28.8176 -0.0000 -52.7794 -14.0503 43.0402 0.2362 3.0163 1.1152 -53.3106 -14.7438 61.8318 0.6284 7.6136 1.9253 -18.0635 0.0000 -6.0729 30.2389 3.0587 -8.7902 0.0000 -26.7447 -42.4404 -5.8412 0.0215 -0.0000 13.2627 -0.0000 -2.2333 -32.1544 2.4224 11.7757 -0.0000 -30.6738 27.2084 17.9577 -0.6730 0.0000
